<?xml version="1.0" encoding="utf-8"?>
<!-- Generator: Adobe Illustrator 23.0.5, SVG Export Plug-In . SVG Version: 6.00 Build 0)  -->
<svg version="1.1" id="svg2" xmlns="http://www.w3.org/2000/svg" xmlns:xlink="http://www.w3.org/1999/xlink" x="0px" y="0px"
	 viewBox="0 0 25 25" style="enable-background:new 0 0 25 25;" xml:space="preserve">
<style type="text/css">
	.st0{fill:#FF8B00;}
</style>
<title>alt</title>
<g id="layer1">
	<g id="text5290">
		<path id="path5340" class="st0" d="M10,15H7l-0.4,1.3H4.7L7.4,9h2.2l2.7,7.3h-1.9L10,15z M7.5,13.6h2l-1-2.9L7.5,13.6z"/>
		<path id="path5342" class="st0" d="M13.2,8.7h1.8v7.6h-1.8V8.7z"/>
		<path id="path5344" class="st0" d="M18.5,9.3v1.6h1.8v1.3h-1.8v2.3c0,0.2,0,0.4,0.1,0.5c0.2,0.1,0.4,0.2,0.6,0.1h0.9v1.2h-1.5
			c-0.5,0.1-1.1-0.1-1.5-0.4c-0.3-0.4-0.5-0.9-0.4-1.5v-2.3h-0.9v-1.3h0.9V9.3H18.5z"/>
	</g>
</g>
</svg>
