<?xml version="1.0" encoding="utf-8"?>
<!-- Generator: Adobe Illustrator 23.0.5, SVG Export Plug-In . SVG Version: 6.00 Build 0)  -->
<svg version="1.1" id="svg2" xmlns="http://www.w3.org/2000/svg" xmlns:xlink="http://www.w3.org/1999/xlink" x="0px" y="0px"
	 viewBox="0 0 25 25" style="enable-background:new 0 0 25 25;" xml:space="preserve">
<style type="text/css">
	.st0{fill:none;stroke:#FF8B00;stroke-width:1.5;stroke-linecap:round;stroke-linejoin:round;}
	.st1{fill:none;stroke:#FF8B00;stroke-width:0.15;stroke-linecap:round;stroke-linejoin:round;}
	.st2{fill:none;stroke:#FF8B00;stroke-width:0.25;stroke-linecap:round;stroke-linejoin:round;}
</style>
<title>clipboard</title>
<g>
	<path class="st0" d="M9.3,3.9H7.1c-1.1,0-2,1.3-2,2.9v14.6c0,1.5,0.8,2.6,1.9,2.6h12.1c1.1,0,2-1.2,2-2.7V6.2
		c0-1.3-0.7-2.3-1.7-2.3h-3.1"/>
	<ellipse class="st0" cx="13.2" cy="3.9" rx="3.1" ry="2.9"/>
	<path class="st1" d="M9.7,9.5h0.7c0.2,0,0.3,0.1,0.3,0.3v0.6c0,0.1-0.1,0.3-0.3,0.3H9.7c-0.2,0-0.3-0.1-0.3-0.3V9.8
		C9.4,9.6,9.5,9.5,9.7,9.5z"/>
	<path class="st1" d="M9.7,12.1h0.7c0.2,0,0.3,0.1,0.3,0.3V13c0,0.1-0.1,0.3-0.3,0.3H9.7c-0.2,0-0.3-0.1-0.3-0.3v-0.6
		C9.4,12.2,9.5,12.1,9.7,12.1z"/>
	<path class="st1" d="M9.7,14.6h0.7c0.2,0,0.3,0.1,0.3,0.3v0.6c0,0.1-0.1,0.3-0.3,0.3H9.7c-0.2,0-0.3-0.1-0.3-0.3v-0.6
		C9.4,14.8,9.5,14.6,9.7,14.6z"/>
	<path class="st1" d="M9.8,17.2h0.7c0.2,0,0.3,0.1,0.3,0.3v0.6c0,0.1-0.1,0.3-0.3,0.3H9.8c-0.2,0-0.3-0.1-0.3-0.3v-0.6
		C9.5,17.3,9.6,17.2,9.8,17.2z"/>
	<line class="st1" x1="12.1" y1="9.4" x2="17" y2="9.4"/>
	<line class="st1" x1="12.1" y1="9.8" x2="14.7" y2="9.8"/>
	<line class="st1" x1="12.1" y1="10.2" x2="16" y2="10.2"/>
	<line class="st1" x1="12.1" y1="12" x2="17" y2="12"/>
	<line class="st1" x1="12.1" y1="12.4" x2="14.7" y2="12.4"/>
	<line class="st1" x1="12.1" y1="12.8" x2="16" y2="12.8"/>
	<line class="st1" x1="11.9" y1="14.5" x2="16.9" y2="14.5"/>
	<line class="st1" x1="11.9" y1="14.9" x2="14.6" y2="14.9"/>
	<line class="st1" x1="11.9" y1="15.3" x2="15.9" y2="15.3"/>
	<line class="st1" x1="11.9" y1="17.1" x2="16.9" y2="17.1"/>
	<line class="st1" x1="11.9" y1="17.5" x2="14.5" y2="17.5"/>
	<line class="st1" x1="11.9" y1="17.9" x2="15.9" y2="17.9"/>
	<path class="st1" d="M9.7,19.8h0.7c0.2,0,0.3,0.1,0.3,0.3v0.6c0,0.1-0.1,0.3-0.3,0.3H9.7c-0.2,0-0.3-0.1-0.3-0.3V20
		C9.4,19.9,9.6,19.8,9.7,19.8z"/>
	<line class="st1" x1="11.9" y1="19.7" x2="16.8" y2="19.7"/>
	<line class="st1" x1="11.9" y1="20" x2="14.5" y2="20"/>
	<line class="st1" x1="11.9" y1="20.4" x2="15.8" y2="20.4"/>
	<path class="st2" d="M6.8,21.9V6.2C6.8,6,7,5.8,7.2,5.8c0,0,0,0,0.1,0h1.8c1,2.5,5.6,4.3,8.1,0h1.5c0.2,0,0.4,0.1,0.4,0.3v15.7
		c0,0.4-0.3,0.7-0.7,0.7H7.5C7.1,22.5,6.8,22.2,6.8,21.9z"/>
</g>
</svg>
