<svg id="svg2" xmlns="http://www.w3.org/2000/svg" viewBox="0 0 25 25"><defs><style>.cls-1{fill:#ff8b00;}</style></defs><title>ctrl</title><g id="layer1"><g id="text5290"><path id="path5370" class="cls-1" d="M8.73,16.13a5,5,0,0,1-1.17.44,5.4,5.4,0,0,1-1.28.15,4.36,4.36,0,0,1-3.15-1.11A3.94,3.94,0,0,1,2,12.6a4,4,0,0,1,1.16-3A4.36,4.36,0,0,1,6.28,8.47a5.4,5.4,0,0,1,1.28.15,5.51,5.51,0,0,1,1.17.44v1.65a4.39,4.39,0,0,0-1.12-.57A3.77,3.77,0,0,0,6.44,10a2.17,2.17,0,0,0-1.72.7,2.8,2.8,0,0,0-.63,1.94,2.79,2.79,0,0,0,.63,1.93,2.17,2.17,0,0,0,1.72.71,3.5,3.5,0,0,0,1.17-.19,4.39,4.39,0,0,0,1.12-.57Z"/><path id="path5372" class="cls-1" d="M12.44,8.91V10.6h2V12h-2V14.5a.75.75,0,0,0,.16.56,1,1,0,0,0,.66.14h1v1.37H12.6A2.23,2.23,0,0,1,11,16.1a2.2,2.2,0,0,1-.47-1.6V12H9.58V10.6h.95V8.91Z"/><path id="path5374" class="cls-1" d="M20,12.23a2.11,2.11,0,0,0-.5-.17A2.14,2.14,0,0,0,19,12a1.37,1.37,0,0,0-1.13.47,2,2,0,0,0-.4,1.35v2.75H15.57v-6h1.91v1a2.53,2.53,0,0,1,.84-.85,2.33,2.33,0,0,1,1.15-.27h.21l.32,0v1.73Z"/><path id="path5376" class="cls-1" d="M21,8.28h1.9v8.29H21Z"/></g></g></svg>