<?xml version="1.0" encoding="utf-8"?>
<!-- Generator: Adobe Illustrator 23.0.5, SVG Export Plug-In . SVG Version: 6.00 Build 0)  -->
<svg version="1.1" id="svg2" xmlns="http://www.w3.org/2000/svg" xmlns:xlink="http://www.w3.org/1999/xlink" x="0px" y="0px"
	 viewBox="0 0 17.9 16.7" style="enable-background:new 0 0 17.9 16.7;" xml:space="preserve">
<style type="text/css">
	.st0{fill:#FF8B00;stroke:#FF8B00;stroke-width:2;stroke-linecap:round;stroke-linejoin:round;}
	.st1{fill:#FFFFFF;}
</style>
<title>ctrlaltdel</title>
<path id="rect5253" class="st0" d="M7.3,1h3.4c0.6,0,1.1,0.5,1.1,1.1v3.4c0,0.6-0.5,1.1-1.1,1.1H7.3c-0.6,0-1.1-0.5-1.1-1.1V2.1
	C6.1,1.5,6.6,1,7.3,1z"/>
<path id="rect5255" class="st0" d="M2.1,10h3.4c0.6,0,1.1,0.5,1.1,1.1v3.4c0,0.6-0.5,1.1-1.1,1.1H2.1c-0.6,0-1.1-0.5-1.1-1.1v-3.4
	C1,10.5,1.5,10,2.1,10z"/>
<path id="rect5257" class="st0" d="M12.4,10h3.4c0.6,0,1.1,0.5,1.1,1.1v3.4c0,0.6-0.5,1.1-1.1,1.1h-3.4c-0.6,0-1.1-0.5-1.1-1.1v-3.4
	C11.2,10.5,11.7,10,12.4,10z"/>
<g id="layer1">
	<g id="text5290">
		<path id="path5370" class="st1" d="M7.8,4.9C7.7,5,7.6,5,7.5,5.1c-0.1,0-0.3,0-0.4,0c-0.4,0-0.7-0.1-1-0.3
			C5.9,4.5,5.8,4.2,5.8,3.8c0-0.3,0.1-0.7,0.4-0.9c0.3-0.3,0.6-0.4,1-0.3c0.1,0,0.3,0,0.4,0c0.1,0,0.2,0.1,0.4,0.1v0.5
			C7.8,3.2,7.7,3.1,7.6,3.1c-0.1,0-0.2,0-0.4,0C7,3,6.8,3.1,6.7,3.3C6.5,3.4,6.5,3.6,6.5,3.8c0,0.2,0.1,0.4,0.2,0.6
			C6.8,4.6,7,4.7,7.2,4.6c0.1,0,0.2,0,0.4-0.1c0.1,0,0.2-0.1,0.3-0.2L7.8,4.9z"/>
		<path id="path5372" class="st1" d="M8.9,2.8v0.5h0.6v0.4H8.9v0.8c0,0.1,0,0.1,0,0.2c0.1,0,0.1,0,0.2,0h0.3V5H9.1
			C8.9,5,8.7,5,8.6,4.9C8.5,4.7,8.4,4.6,8.4,4.4V3.7H8.1V3.3h0.3V2.8H8.9z"/>
		<path id="path5374" class="st1" d="M11.2,3.8h-0.1h-0.1c-0.1,0-0.3,0-0.3,0.1c-0.1,0.1-0.1,0.3-0.1,0.4v0.8H9.9V3.3h0.6v0.3
			c0.1-0.1,0.1-0.2,0.3-0.3c0.1-0.1,0.2-0.1,0.3-0.1h0.2L11.2,3.8L11.2,3.8z"/>
		<path id="path5376" class="st1" d="M11.5,2.6h0.5v2.5h-0.6L11.5,2.6z"/>
	</g>
</g>
<g id="layer1-2">
	<g id="text5290-2">
		<path id="path5340" class="st1" d="M2.7,13.7H1.7l-0.2,0.5H0.9l1-2.6h0.8l1,2.6H2.9L2.7,13.7z M1.8,13.2h0.7l-0.4-1L1.8,13.2z"/>
		<path id="path5342" class="st1" d="M3.9,11.5h0.6v2.7H3.9V11.5z"/>
		<path id="path5344" class="st1" d="M5.8,11.7v0.6h0.6v0.5H5.8v0.8c0,0.1,0,0.1,0.1,0.2c0,0,0.1,0,0.2,0h0.3v0.5H5.9
			c-0.2,0-0.4,0-0.5-0.1c-0.1-0.2-0.2-0.3-0.1-0.5v-0.8H4.9v-0.5h0.3v-0.6L5.8,11.7z"/>
	</g>
</g>
<g>
	<g>
		<path class="st1" d="M12.1,10.8c1.1,1.2,2.2,2.4,3.3,3.6c0.2,0.2,0.3,0.3,0.5,0.5c0.2,0.2,0.6-0.1,0.4-0.4
			c-1.1-1.2-2.2-2.4-3.3-3.6c-0.2-0.2-0.3-0.3-0.5-0.5C12.2,10.2,11.9,10.6,12.1,10.8L12.1,10.8z"/>
	</g>
</g>
<g>
	<g>
		<path class="st1" d="M15.8,10.3c-1.1,1.3-2.2,2.6-3.3,3.9c-0.2,0.2-0.3,0.4-0.5,0.6c-0.2,0.2,0.1,0.6,0.4,0.4
			c1.1-1.3,2.2-2.6,3.3-3.9c0.2-0.2,0.3-0.4,0.5-0.6C16.4,10.4,16,10.1,15.8,10.3L15.8,10.3z"/>
	</g>
</g>
</svg>
