<svg id="svg2" xmlns="http://www.w3.org/2000/svg" viewBox="0 0 18.01 18.01"><defs><style>.cls-1{fill:#ff8b00;}</style></defs><title>disconnect</title><path id="path5110" class="cls-1" d="M15.68,3.5a3,3,0,0,0-2.12.87L11,6.93l1.42,1.42L15,5.78a1,1,0,0,1,1.42,0l2.83,2.83a1,1,0,0,1,0,1.41l-2.57,2.57L18.06,14l2.57-2.57a3,3,0,0,0,0-4.24L17.8,4.37A3,3,0,0,0,15.68,3.5ZM15,9a1,1,0,0,0-.69.3l-.45.44,1.42,1.42.44-.45a1,1,0,0,0,0-1.41A1,1,0,0,0,15,9Zm-6.37.7a1.06,1.06,0,0,0-.69.3L4.37,13.56a3,3,0,0,0,0,4.24L7.2,20.63a3,3,0,0,0,4.24,0L15,17.1a1,1,0,0,0-1.38-1.45l0,0L10,19.22a1,1,0,0,1-1.42,0L5.78,16.39a1,1,0,0,1,0-1.41l3.54-3.54a1,1,0,0,0-.73-1.72Zm3.11,2.16L9.32,14.27a1,1,0,1,0,1.38,1.44l0,0,2.39-2.38Z" transform="translate(-3.5 -3.5)"/><rect id="rect5116" class="cls-1" x="12.58" y="3.63" width="3" height="18" transform="translate(-8.3 10.16) rotate(-45)"/></svg>