<?xml version="1.0" encoding="utf-8"?>
<!-- Generator: Adobe Illustrator 23.0.5, SVG Export Plug-In . SVG Version: 6.00 Build 0)  -->
<svg version="1.1" id="Layer_1" xmlns="http://www.w3.org/2000/svg" xmlns:xlink="http://www.w3.org/1999/xlink" x="0px" y="0px"
	 viewBox="0 0 25 25" style="enable-background:new 0 0 25 25;" xml:space="preserve">
<style type="text/css">
	.st0{fill:#FF8B00;}
	.st1{fill:#FFFFFF;}
</style>
<path class="st0" d="M19.5,5.7c-0.7,0-1.3,0.6-1.3,1.3v3.9c0,0.3-0.2,0.5-0.5,0.5c-0.3,0-0.5-0.2-0.5-0.5v-7c0-0.7-0.6-1.3-1.3-1.3
	s-1.3,0.6-1.3,1.3v7c0,0.3-0.2,0.5-0.5,0.5c-0.3,0-0.5-0.2-0.5-0.5V2.9c0-0.7-0.6-1.3-1.3-1.3c-0.7,0-1.3,0.6-1.3,1.3v8.1
	c0,0.3-0.2,0.5-0.5,0.5c-0.3,0-0.5-0.2-0.5-0.5V4.4c0-0.7-0.6-1.3-1.3-1.3S7.3,3.7,7.3,4.4v6.5v0.5v4.8l-1.6-1.6
	c-0.7-0.7-1.9-0.7-2.6,0c-0.7,0.7-0.7,1.9,0,2.6l5.2,5.2l0,0c0.6,0.7,1.5,1.1,2.5,1.1h5.8c2.3,0,4.2-1.9,4.2-4.2v-7.8v-0.5V7
	C20.8,6.3,20.3,5.7,19.5,5.7z"/>
<path class="st1" d="M16.1,14.1h1v6.8h-1V14.1z M13.5,14.1h1v6.8h-1V14.1z M10.9,14.1h1v6.8h-1V14.1z"/>
</svg>
