<svg id="svg2" xmlns="http://www.w3.org/2000/svg" viewBox="0 0 19 19"><defs><style>.cls-1{fill:#ff8b00;}</style></defs><title>error</title><g id="layer1"><path id="rect4135" class="cls-1" d="M7,3A4,4,0,0,0,3,7V18a4,4,0,0,0,4,4H18a4,4,0,0,0,4-4V7a4,4,0,0,0-4-4Zm.7,3a1.67,1.67,0,0,1,1.21.51L12.5,10.1l3.59-3.59a1.69,1.69,0,1,1,2.39,2.4L14.89,12.5l3.59,3.59a1.69,1.69,0,1,1-2.35,2.43l0,0L12.5,14.89,8.91,18.48a1.69,1.69,0,1,1-2.47-2.31.6.6,0,0,1,.08-.08l3.59-3.59L6.52,8.91A1.7,1.7,0,0,1,7.7,6Z" transform="translate(-3 -3)"/></g></svg>