<svg id="svg2" xmlns="http://www.w3.org/2000/svg" viewBox="0 0 17.13 7.43"><defs><style>.cls-1{fill:#ff8b00;}</style></defs><title>esc</title><g id="layer1"><g id="text5290"><path id="path5314" class="cls-1" d="M3.93,8.78H9v1.43H5.81v1.35h3V13h-3v1.67h3.3v1.42H3.93Z" transform="translate(-3.93 -8.78)"/><path id="path5316" class="cls-1" d="M15,10.78V12.1a7.12,7.12,0,0,0-1.08-.35,4.41,4.41,0,0,0-1-.11,1.74,1.74,0,0,0-.74.12.4.4,0,0,0-.24.38.38.38,0,0,0,.18.33,1.84,1.84,0,0,0,.66.16l.31,0a3.71,3.71,0,0,1,1.81.56,1.54,1.54,0,0,1,.46,1.22,1.51,1.51,0,0,1-.64,1.32,3.49,3.49,0,0,1-1.93.44,7.34,7.34,0,0,1-1.12-.09,9.11,9.11,0,0,1-1.19-.26V14.55a5.47,5.47,0,0,0,1.07.38,5.26,5.26,0,0,0,1.12.12,1.58,1.58,0,0,0,.77-.14.45.45,0,0,0,.26-.42.37.37,0,0,0-.18-.34,1.89,1.89,0,0,0-.71-.19l-.31,0a3.17,3.17,0,0,1-1.63-.55,1.45,1.45,0,0,1-.47-1.2A1.48,1.48,0,0,1,11,10.89a3.21,3.21,0,0,1,1.83-.42,7.47,7.47,0,0,1,1,.08,9.73,9.73,0,0,1,1.15.23Z" transform="translate(-3.93 -8.78)"/><path id="path5318" class="cls-1" d="M21.07,10.78V12.2a3,3,0,0,0-.72-.36,2.34,2.34,0,0,0-.74-.12,1.55,1.55,0,0,0-1.15.43,1.66,1.66,0,0,0-.4,1.19,1.67,1.67,0,0,0,.4,1.2,1.55,1.55,0,0,0,1.15.43,2.19,2.19,0,0,0,.77-.13,2.27,2.27,0,0,0,.69-.36v1.43a5,5,0,0,1-.84.23,4.78,4.78,0,0,1-.84.08,3.36,3.36,0,0,1-2.32-.76,2.74,2.74,0,0,1-.83-2.12,2.7,2.7,0,0,1,.83-2.1,3.31,3.31,0,0,1,2.32-.77,4.69,4.69,0,0,1,.84.08,5.25,5.25,0,0,1,.84.23Z" transform="translate(-3.93 -8.78)"/></g></g></svg>