<?xml version="1.0" encoding="utf-8"?>
<!-- Generator: Adobe Illustrator 23.0.5, SVG Export Plug-In . SVG Version: 6.00 Build 0)  -->
<svg version="1.1"
	 id="svg2" inkscape:export-filename="/home/ossman/devel/noVNC/images/drag.png" inkscape:export-xdpi="90" inkscape:export-ydpi="90" inkscape:version="0.91 r13725" sodipodi:docname="handle_bg.svg" xmlns:cc="http://creativecommons.org/ns#" xmlns:dc="http://purl.org/dc/elements/1.1/" xmlns:inkscape="http://www.inkscape.org/namespaces/inkscape" xmlns:rdf="http://www.w3.org/1999/02/22-rdf-syntax-ns#" xmlns:sodipodi="http://sodipodi.sourceforge.net/DTD/sodipodi-0.dtd" xmlns:svg="http://www.w3.org/2000/svg"
	 xmlns="http://www.w3.org/2000/svg" xmlns:xlink="http://www.w3.org/1999/xlink" x="0px" y="0px" viewBox="0 0 15 50"
	 style="enable-background:new 0 0 15 50;" xml:space="preserve">
<style type="text/css">
	.st0{opacity:0.25;fill:#FF8B00;stroke:#FF8B00;stroke-linecap:round;stroke-linejoin:round;enable-background:new    ;}
</style>
<sodipodi:namedview  bordercolor="#666666" borderopacity="1.0" id="base" inkscape:bbox-nodes="true" inkscape:bbox-paths="true" inkscape:current-layer="layer1" inkscape:cx="-10.001409" inkscape:cy="24.512566" inkscape:document-units="px" inkscape:object-nodes="true" inkscape:object-paths="true" inkscape:pageopacity="0" inkscape:pageshadow="2" inkscape:snap-bbox="true" inkscape:snap-bbox-edge-midpoints="true" inkscape:snap-global="true" inkscape:snap-intersection-paths="true" inkscape:snap-nodes="true" inkscape:snap-smooth-nodes="true" inkscape:window-height="1136" inkscape:window-maximized="1" inkscape:window-width="1920" inkscape:window-x="1920" inkscape:window-y="27" inkscape:zoom="16" pagecolor="#959595" showgrid="true" showguides="false" units="px">
	<inkscape:grid  id="grid4136" type="xygrid"></inkscape:grid>
</sodipodi:namedview>
<g id="layer1" transform="translate(0,-1002.3622)" inkscape:groupmode="layer" inkscape:label="Layer 1">
	<polygon id="rect4249" class="st0" points="9.5,1008.9 10.5,1008.9 10.5,1008.9 10.5,1009.9 10.5,1009.9 9.5,1009.9 9.5,1009.9 
		9.5,1008.9 	"/>
	<polygon id="rect4255" class="st0" points="9.5,1013.9 10.5,1013.9 10.5,1013.9 10.5,1014.9 10.5,1014.9 9.5,1014.9 9.5,1014.9 
		9.5,1013.9 	"/>
	<polygon id="rect4261" class="st0" points="4.5,1008.9 5.5,1008.9 5.5,1008.9 5.5,1009.9 5.5,1009.9 4.5,1009.9 4.5,1009.9 
		4.5,1008.9 	"/>
	<polygon id="rect4263" class="st0" points="4.5,1013.9 5.5,1013.9 5.5,1013.9 5.5,1014.9 5.5,1014.9 4.5,1014.9 4.5,1014.9 
		4.5,1013.9 	"/>
	<polygon id="rect4265" class="st0" points="9.5,1039.9 10.5,1039.9 10.5,1039.9 10.5,1040.9 10.5,1040.9 9.5,1040.9 9.5,1040.9 
		9.5,1039.9 	"/>
	<polygon id="rect4267" class="st0" points="9.5,1044.9 10.5,1044.9 10.5,1044.9 10.5,1045.9 10.5,1045.9 9.5,1045.9 9.5,1045.9 
		9.5,1044.9 	"/>
	<polygon id="rect4269" class="st0" points="4.5,1039.9 5.5,1039.9 5.5,1039.9 5.5,1040.9 5.5,1040.9 4.5,1040.9 4.5,1040.9 
		4.5,1039.9 	"/>
	<polygon id="rect4271" class="st0" points="4.5,1044.9 5.5,1044.9 5.5,1044.9 5.5,1045.9 5.5,1045.9 4.5,1045.9 4.5,1045.9 
		4.5,1044.9 	"/>
	<polygon id="rect4273" class="st0" points="9.5,1018.9 10.5,1018.9 10.5,1018.9 10.5,1019.9 10.5,1019.9 9.5,1019.9 9.5,1019.9 
		9.5,1018.9 	"/>
	<polygon id="rect4275" class="st0" points="4.5,1018.9 5.5,1018.9 5.5,1018.9 5.5,1019.9 5.5,1019.9 4.5,1019.9 4.5,1019.9 
		4.5,1018.9 	"/>
	<polygon id="rect4277" class="st0" points="9.5,1034.9 10.5,1034.9 10.5,1034.9 10.5,1035.9 10.5,1035.9 9.5,1035.9 9.5,1035.9 
		9.5,1034.9 	"/>
	<polygon id="rect4279" class="st0" points="4.5,1034.9 5.5,1034.9 5.5,1034.9 5.5,1035.9 5.5,1035.9 4.5,1035.9 4.5,1035.9 
		4.5,1034.9 	"/>
</g>
</svg>
