<svg id="svg2" xmlns="http://www.w3.org/2000/svg" viewBox="0 0 19 19"><defs><style>.cls-1{fill:#ff8b00;}</style></defs><title>info</title><g id="layer1"><path id="path4136" class="cls-1" d="M12.5,3A9.5,9.5,0,0,0,3,12.5H3A9.5,9.5,0,0,0,12.5,22h0A9.5,9.5,0,0,0,22,12.5h0A9.5,9.5,0,0,0,12.5,3Zm0,2A1.5,1.5,0,1,1,11,6.5,1.5,1.5,0,0,1,12.5,5Zm-2,4h2a1.5,1.5,0,0,1,1.5,1.5V16a1.5,1.5,0,0,1,1.5,1.5,1.49,1.49,0,0,1-1,1.42,2.52,2.52,0,0,1-3-1.06A3.55,3.55,0,0,1,11,16V12h-.5a1.5,1.5,0,1,1,0-3Z" transform="translate(-3 -3)"/></g></svg>