<?xml version="1.0" encoding="utf-8"?>
<!-- Generator: Adobe Illustrator 23.0.5, SVG Export Plug-In . SVG Version: 6.00 Build 0)  -->
<svg version="1.1" id="Layer_1" xmlns="http://www.w3.org/2000/svg" xmlns:xlink="http://www.w3.org/1999/xlink" x="0px" y="0px"
	 viewBox="0 0 25 25" style="enable-background:new 0 0 25 25;" xml:space="preserve">
<style type="text/css">
	.st0{fill:#FF8B00;}
</style>
<path class="st0" d="M22.5,5h-20C1.6,5,0.8,5.7,0.8,6.7v11.7c0,0.9,0.7,1.7,1.7,1.7h20c0.9,0,1.7-0.7,1.7-1.7V6.7
	C24.2,5.7,23.4,5,22.5,5z M16.7,8.3h1.7V10h-1.7V8.3z M13.3,8.3H15V10h-1.7V8.3z M16.7,11.7v1.7H15v-1.7H16.7z M10,8.3h1.7V10H10
	V8.3z M13.3,11.7v1.7h-1.7v-1.7H13.3z M6.7,8.3h1.7V10H6.7V8.3z M10,11.7v1.7H8.3v-1.7H10z M3.3,8.3H5V10H3.3V8.3z M3.3,11.7h3.3
	v1.7H3.3V11.7z M5,16.7H3.3V15H5V16.7z M18.3,16.7H6.7V15h11.7V16.7z M21.7,16.7H20V15h1.7V16.7z M21.7,13.3h-3.3v-1.7h3.3V13.3z
	 M21.7,10H20V8.3h1.7V10z"/>
</svg>
