<?xml version="1.0" encoding="UTF-8" standalone="yes"?>
<svg xmlns="http://www.w3.org/2000/svg" viewBox="0 0 24 24" width="25" height="25" fill="#000000">
  <path d="M12,2C6.477,2,2,6.477,2,12c0,5.523,4.477,10,10,10s10-4.477,10-10C22,6.477,17.523,2,12,2z M12,4L12,4 c0.552,0,1,0.448,1,1v6c0,0.552-0.448,1-1,1h0c-0.552,0-1-0.448-1-1V5C11,4.448,11.448,4,12,4z M10.368,19.837 c-3.063-0.609-5.541-3.053-6.185-6.109C3.466,10.33,4.925,7.195,7.423,5.447C8.086,4.984,9,5.46,9,6.268v0 C9,6.607,8.819,6.91,8.543,7.106c-1.776,1.257-2.845,3.45-2.467,5.858c0.408,2.604,2.579,4.683,5.197,4.993 C14.905,18.386,18,15.548,18,12c0-2.021-1.007-3.809-2.544-4.895C15.18,6.909,15,6.608,15,6.27v0c0-0.802,0.906-1.29,1.564-0.832 C18.639,6.884,20,9.285,20,12C20,16.945,15.49,20.856,10.368,19.837z"/>
</svg>