<?xml version="1.0" encoding="utf-8"?>
<!-- Generator: Adobe Illustrator 23.0.5, SVG Export Plug-In . SVG Version: 6.00 Build 0)  -->
<svg version="1.1" id="Layer_1" xmlns="http://www.w3.org/2000/svg" xmlns:xlink="http://www.w3.org/1999/xlink" x="0px" y="0px"
	 viewBox="0 0 25 25" style="enable-background:new 0 0 25 25;" xml:space="preserve">
<style type="text/css">
	.st0{fill:#FF8B00;}
</style>
<path class="st0" d="M20.6,14.2c0.1-0.4,0.1-0.7,0.1-1.1s-0.1-0.8-0.1-1.1l2.3-1.7c0.2-0.2,0.3-0.5,0.2-0.7l-2.3-3.9
	c-0.2-0.3-0.4-0.4-0.7-0.2l-2.6,1.2c-0.6-0.5-1.3-0.8-2-1.1l-0.3-2.9c-0.1-0.3-0.3-0.5-0.5-0.5h-4.5c-0.3,0-0.5,0.2-0.5,0.5L9.5,5.5
	c-0.7,0.3-1.4,0.7-2,1.1L4.9,5.4c-0.3-0.1-0.6,0-0.7,0.2L2,9.5c-0.1,0.2,0,0.6,0.2,0.7l2.3,1.7c-0.1,0.4-0.1,0.7-0.1,1.1
	s0.1,0.8,0.1,1.1l-2.4,1.7c-0.2,0.2-0.3,0.5-0.2,0.7l2.2,3.9c0.2,0.3,0.4,0.4,0.7,0.2l2.6-1.2c0.6,0.5,1.3,0.8,2,1.1l0.3,2.9
	c0.1,0.3,0.3,0.5,0.5,0.5h4.5c0.3,0,0.5-0.2,0.5-0.5l0.3-2.9c0.7-0.3,1.4-0.7,2-1.1l2.6,1.2c0.3,0.1,0.6,0,0.7-0.2l2.2-3.9
	c0.2-0.3,0.1-0.6-0.2-0.7L20.6,14.2z M12.5,18.2c-2.9,0-5.2-2.3-5.2-5.2s2.3-5.2,5.2-5.2s5.2,2.3,5.2,5.2S15.4,18.2,12.5,18.2z"/>
</svg>
