<svg id="svg2" xmlns="http://www.w3.org/2000/svg" viewBox="0 0 17 17"><defs><style>.cls-1{fill:#ff8b00;}</style></defs><title>toggleextrakeys</title><path id="rect5006" class="cls-1" d="M8,4A4,4,0,0,0,4,8v9a4,4,0,0,0,4,4h9a4,4,0,0,0,4-4V8a4,4,0,0,0-4-4ZM8,6h9a2,2,0,0,1,2,2v7a2,2,0,0,1-2,2H8a2,2,0,0,1-2-2V8A2,2,0,0,1,8,6Z" transform="translate(-4 -4)"/><g id="text4167"><path class="cls-1" d="M13.58,8H11.42L8.83,15h1.82l.44-1.28h2.82L14.35,15h1.82Zm-2,4.43,1-2.79,1,2.79Z" transform="translate(-4 -4)"/></g></svg>